<?xml version="1.0" standalone="no"?>
<!DOCTYPE svg PUBLIC "-//W3C//DTD SVG 20010904//EN"
 "http://www.w3.org/TR/2001/REC-SVG-20010904/DTD/svg10.dtd">
<svg version="1.0" xmlns="http://www.w3.org/2000/svg"
 width="50px" height="65px" viewBox="0 0 176.000000 246.000000"
 preserveAspectRatio="xMidYMid meet">

<g transform="translate(0.000000,246.000000) scale(0.100000,-0.100000)"
fill="#EDA543" stroke="none">
<path d="M810 1890 c-62 -8 -156 -40 -204 -69 -28 -18 -79 -77 -120 -142 -21
-33 -46 -163 -46 -239 0 -74 21 -166 60 -259 16 -40 24 -69 17 -63 -6 5 -47
24 -90 41 -153 61 -281 29 -368 -92 -25 -34 -29 -49 -29 -103 0 -35 5 -66 10
-69 6 -3 10 -14 10 -24 0 -35 92 -118 185 -167 131 -68 210 -93 374 -115 80
-11 162 -25 182 -31 43 -12 135 -5 279 21 202 37 347 80 397 117 17 13 38 24
46 24 20 0 126 79 160 120 37 44 64 104 71 161 5 40 1 53 -30 103 -39 61 -89
94 -176 116 -60 15 -161 -9 -249 -59 l-67 -39 18 42 c10 22 31 82 45 131 24
79 26 101 20 179 -3 49 -15 115 -26 145 -11 31 -23 67 -26 80 -8 34 -81 102
-148 140 -50 28 -184 64 -225 60 -8 -1 -40 -5 -70 -9z m202 -127 c145 -65 193
-274 118 -513 -18 -58 -47 -130 -64 -160 -18 -30 -38 -70 -45 -88 -18 -43 -39
-54 -60 -33 -14 14 -16 31 -13 84 5 79 0 105 -28 135 -25 26 -66 29 -92 5 -15
-13 -18 -33 -19 -112 -1 -53 -4 -109 -8 -126 l-6 -29 -39 52 c-88 121 -164
314 -173 442 -5 82 16 206 42 247 23 34 103 91 155 108 58 19 174 13 232 -12z
m549 -688 c89 -60 50 -139 -122 -248 -66 -42 -142 -73 -214 -89 -74 -15 -185
-21 -185 -10 0 16 76 124 130 184 71 80 199 163 270 176 81 14 82 14 121 -13z
m-1148 -49 c79 -36 107 -56 179 -127 89 -88 148 -162 148 -187 0 -11 -12 -13
-62 -9 -142 11 -313 63 -399 120 -76 51 -109 96 -109 147 0 54 24 78 90 89 30
5 56 9 57 10 1 0 44 -19 96 -43z"/>
</g>
</svg>
